Coordinates
version=1
nRows=24
nColumns=24
inDegrees=yes

Units are S.I. units (second, meters, Newtons, ...)
Angles are in degrees.

endheader
time	pelvis_tilt	pelvis_list	pelvis_rotation	pelvis_tx	pelvis_ty	pelvis_tz	hip_flexion_r	hip_adduction_r	hip_rotation_r	knee_angle_r	ankle_angle_r	subtalar_angle_r	mtp_angle_r	hip_flexion_l	hip_adduction_l	hip_rotation_l	knee_angle_l	ankle_angle_l	subtalar_angle_l	mtp_angle_l	lumbar_extension	lumbar_bending	lumbar_rotation
      0.75816667	      0.46639031	     -3.13877531	      7.19264478	     -0.50899453	      0.91279879	      0.32064432	     10.74775855	     10.43644200	     -1.87981272	    -19.49791453	      7.88419295	     -4.89949810	      4.79638546	     17.78091836	     -8.61372255	     -4.69562032	    -71.37989958	     -0.34147450	     -6.92472859	      3.82777727	     -4.27271699	      5.12187617	     -0.98982224
      0.76233333	      0.46497865	     -2.94915095	      6.95367296	     -0.50367314	      0.91397222	      0.32104545	     10.08315249	     10.31287052	     -1.64997586	    -18.99093323	      7.91201239	     -4.74341205	      4.82114165	     18.28450701	     -8.36456025	     -4.97847123	    -70.81130794	      0.10933728	     -7.22853287	      3.78099215	     -4.28108914	      4.89467727	     -0.90231899
      0.76650000	      0.51395689	     -2.73713571	      6.69244639	     -0.49837936	      0.91522253	      0.32145757	      9.35461491	     10.16962447	     -1.37204442	    -18.47068512	      7.94734415	     -4.54915895	      4.86207277	     18.69548671	     -8.08784668	     -5.26774701	    -70.14610201	      0.48253026	     -7.53748450	      3.70462976	     -4.41005321	      4.67714082	     -0.63669160
      0.77066667	      0.55516000	     -2.55601869	      6.42907551	     -0.49305461	      0.91640149	      0.32189158	      8.62896040	     10.05003392	     -1.13682112	    -17.92313153	      7.97920063	     -4.32446623	      4.97329615	     19.10957136	     -7.86552714	     -5.57714057	    -69.44167362	      0.84265048	     -7.75975580	      3.50162484	     -4.48070334	      4.46446898	     -0.15001790
      0.77483333	      0.60591544	     -2.35186092	      6.14933236	     -0.48774748	      0.91756126	      0.32233990	      7.90109598	      9.90241820	     -0.88293993	    -17.39825080	      8.03348197	     -4.14290130	      5.03481235	     19.48239652	     -7.61870040	     -5.90244949	    -68.66205273	      1.20393712	     -7.94757247	      3.39650007	     -4.56979078	      4.22707755	      0.05729323
      0.77900000	      0.66000374	     -2.16139654	      5.85358933	     -0.48245775	      0.91867293	      0.32280485	      7.17228619	      9.76290587	     -0.62949717	    -16.86617260	      8.05692283	     -3.92599520	      5.10103170	     19.83694670	     -7.39523433	     -6.24202145	    -67.83190122	      1.56439204	     -8.08502793	      3.28812359	     -4.66531394	      4.01029783	      0.35535664
      0.78316667	      0.69319314	     -1.96785547	      5.52875351	     -0.47718551	      0.91970541	      0.32328791	      6.48312073	      9.61051029	     -0.36058158	    -16.36620643	      8.04851378	     -3.71026445	      5.14763989	     20.18908076	     -7.17073904	     -6.60471616	    -66.94090132	      1.92993342	     -8.17775926	      3.21589511	     -4.73500256	      3.80475573	      0.58679633
      0.78733333	      0.76065096	     -1.80477897	      5.21852787	     -0.47190915	      0.92071753	      0.32377311	      5.73828322	      9.48863403	     -0.10797862	    -15.81197362	      8.06464860	     -3.46791735	      5.27193853	     20.50291447	     -6.98989927	     -6.95264262	    -66.01435091	      2.26222171	     -8.22665116	      3.02457174	     -4.84297546	      3.61765749	      1.07134197
      0.79150000	      0.81033737	     -1.61330264	      4.87915834	     -0.46665502	      0.92166208	      0.32426319	      5.03911077	      9.32594910	      0.15871400	    -15.32053565	      8.09288373	     -3.26422373	      5.31941704	     20.80155385	     -6.77845904	     -7.33544000	    -65.01204072	      2.57552445	     -8.24271983	      2.95684202	     -4.92742347	      3.39757072	      1.23698536
      0.79566667	      0.88623169	     -1.44254362	      4.53672699	     -0.46141217	      0.92257736	      0.32476040	      4.30565223	      9.18002724	      0.41623433	    -14.80255508	      8.11420406	     -3.02855578	      5.37304420	     21.06102350	     -6.59594019	     -7.71068443	    -63.96609026	      2.87558958	     -8.21951619	      2.88356972	     -5.04125401	      3.20667543	      1.52805065
      0.79983333	      0.96046546	     -1.31018807	      4.19861906	     -0.45616939	      0.92340040	      0.32526602	      3.56745090	      9.06991738	      0.67377303	    -14.25610955	      8.12960291	     -2.79134853	      5.50792149	     21.32315234	     -6.46348344	     -8.07830459	    -62.89986474	      3.17414290	     -8.15199337	      2.69520539	     -5.14631604	      3.05296700	      2.03602076
      0.80400000	      1.03329661	     -1.16240645	      3.84305688	     -0.45095711	      0.92416806	      0.32576984	      2.85009701	      8.93368900	      0.93493622	    -13.75009522	      8.15572073	     -2.55679838	      5.62980129	     21.56115956	     -6.31287806	     -8.45978428	    -61.76807291	      3.44175265	     -8.06142660	      2.52958663	     -5.25798716	      2.88444928	      2.34727775
      0.80816667	      1.08401050	     -1.00826128	      3.47234302	     -0.44577488	      0.92483940	      0.32627520	      2.17971314	      8.78040814	      1.20219648	    -13.28860807	      8.20054726	     -2.34058026	      5.68119190	     21.80385947	     -6.15336480	     -8.84883529	    -60.58182741	      3.66440623	     -7.95131417	      2.46513277	     -5.34055064	      2.70752766	      2.53644032
      0.81233333	      1.17249825	     -0.89445291	      3.12357689	     -0.44056927	      0.92547216	      0.32676865	      1.44420151	      8.66695574	      1.44976595	    -12.76622623	      8.26665108	     -2.09731401	      5.75634436	     22.00614562	     -6.04380616	     -9.21398245	    -59.37798720	      3.88875669	     -7.80502863	      2.37281024	     -5.46005463	      2.56940643	      2.90785928
      0.81650000	      1.23878073	     -0.78585683	      2.75240470	     -0.43539937	      0.92600642	      0.32726061	      0.75594705	      8.54842163	      1.71465949	    -12.28479338	      8.30426792	     -1.85697975	      5.84246898	     22.21421879	     -5.93811899	     -9.58810818	    -58.12690549	      4.09068359	     -7.65009295	      2.26770366	     -5.56337862	      2.44887337	      3.26950945
      0.82066667	      1.29695095	     -0.68994787	      2.37804812	     -0.43024474	      0.92644926	      0.32775229	      0.08676354	      8.43495695	      1.97709921	    -11.81845429	      8.34922002	     -1.61526880	      5.93113087	     22.41956724	     -5.84876646	     -9.96028628	    -56.83922811	      4.26668693	     -7.47581590	      2.16235915	     -5.65718245	      2.34067269	      3.60415331
      0.82483333	      1.34915531	     -0.60245773	      2.00375683	     -0.42508926	      0.92681065	      0.32823244	     -0.56737793	      8.32292829	      2.22211391	    -11.36683277	      8.41476946	     -1.38785173	      6.00485191	     22.61767891	     -5.76983328	    -10.33598661	    -55.51399974	      4.40361903	     -7.29690490	      2.07757432	     -5.72618817	      2.23785202	      3.89583890
      0.82900000	      1.40005328	     -0.53694311	      1.63051715	     -0.41995576	      0.92708921	      0.32869866	     -1.21729944	      8.22670613	      2.48351188	    -10.91301266	      8.47284690	     -1.13832053	      6.09379956	     22.80890433	     -5.70874443	    -10.68670326	    -54.15907733	      4.52951310	     -7.10697660	      1.97735871	     -5.81450026	      2.16660896	      4.25089085
      0.83316667	      1.44255122	     -0.47919620	      1.25813785	     -0.41481690	      0.92728336	      0.32915265	     -1.84808845	      8.13104884	      2.72874071	    -10.47886165	      8.55108042	     -0.90453707	      6.17582823	     22.99445411	     -5.66017310	    -11.04686588	    -52.76843188	      4.61220728	     -6.92162747	      1.88750429	     -5.87639572	      2.10168508	      4.56145006
      0.83733333	      1.47806286	     -0.43604423	      0.88859132	     -0.40968740	      0.92739111	      0.32958542	     -2.46368012	      8.04320900	      2.97271641	    -10.05658741	      8.63668242	     -0.66739838	      6.25013930	     23.17753956	     -5.62356526	    -11.39533786	    -51.34926997	      4.66563039	     -6.73800619	      1.80889282	     -5.93351396	      2.05379256	      4.86035157
      0.84150000	      1.50763801	     -0.40953781	      0.52160224	     -0.40456398	      0.92741763	      0.33001084	     -3.06741082	      7.96717307	      3.21817245	     -9.64191260	      8.72402564	     -0.41895705	      6.33772055	     23.35592553	     -5.60057432	    -11.72610534	    -49.90299390	      4.70026385	     -6.55848561	      1.71920081	     -5.99273728	      2.02584139	      5.20411334
      0.84566667	      1.50572019	     -0.38679600	      0.14737981	     -0.39945498	      0.92733250	      0.33041954	     -3.61209848	      7.88701270	      3.45824854	     -9.27521108	      8.80139075	     -0.18912562	      6.39276859	     23.55212627	     -5.58369836	    -12.06987052	    -48.41911554	      4.68288189	     -6.38794038	      1.66568250	     -6.01017644	      2.00140136	      5.42353574
      0.84983333	      1.52168396	     -0.38220529	     -0.20607633	     -0.39432911	      0.92719374	      0.33079927	     -4.18741281	      7.82125472	      3.68853246	     -8.88705048	      8.91180535	      0.05353105	      6.45137942	     23.72182870	     -5.57935935	    -12.38598254	    -46.91867111	      4.65606695	     -6.22990570	      1.61205385	     -6.04878450	      1.99731826	      5.71171421
      0.85400000	      1.52715714	     -0.39346943	     -0.55080101	     -0.38920717	      0.92697013	      0.33115201	     -4.74239268	      7.76731907	      3.91135976	     -8.51589597	      9.03931701	      0.29762579	      6.51582668	     23.89320536	     -5.58617811	    -12.68696932	    -45.39356348	      4.61326245	     -6.07477815	      1.55689256	     -6.07399344	      2.01746585	      6.02408396
